<?xml version="1.0" encoding="UTF-8"?>
<svg width="20px" height="21px" viewBox="0 0 20 21" version="1.1" xmlns="http://www.w3.org/2000/svg" xmlns:xlink="http://www.w3.org/1999/xlink">
    <!-- Generator: Sketch 53.2 (72643) - https://sketchapp.com -->
    <title>basket</title>
    <desc>Created with Sketch.</desc>
    <g id="Symbols" stroke="none" stroke-width="1" fill="none" fill-rule="evenodd">
        <g id="ICON/SHOPPING_CART/FILLED" transform="translate(-11.000000, -9.000000)" fill="#000000" fill-rule="nonzero">
            <g id="basket">
                <path d="M16.700029,22.8269129 L28.5584337,22.8269129 C29.9030644,22.8269129 31,21.7565606 31,20.4445158 L31,15.576139 C31,15.5718231 31,15.5631912 31,15.5588753 C31,15.5459275 31,15.5372956 31,15.5243478 C31,15.5157159 31,15.507084 30.9955769,15.4984522 C30.9955769,15.4898203 30.9911537,15.4768725 30.9911537,15.4682406 C30.9911537,15.4596087 30.9867306,15.4509769 30.9867306,15.442345 C30.9823075,15.4337131 30.9823075,15.4250812 30.9778844,15.4121334 C30.9734612,15.4035016 30.9734612,15.3948697 30.9690381,15.3862378 C30.964615,15.3776059 30.964615,15.3689741 30.9601919,15.3603422 C30.9557687,15.3517103 30.9513456,15.3430784 30.9469225,15.3301306 C30.9424993,15.3214988 30.9380762,15.3128669 30.9336531,15.3085509 C30.92923,15.2999191 30.9248068,15.2912872 30.9203837,15.2826553 C30.9159606,15.2740235 30.9115375,15.2697075 30.9071143,15.2610756 C30.9026912,15.2524438 30.8938449,15.2438119 30.8894218,15.23518 C30.8849987,15.2265481 30.8805756,15.2222322 30.8717293,15.2136003 C30.8673062,15.2049685 30.8584599,15.2006525 30.8540368,15.1920207 C30.8496137,15.1833888 30.8407674,15.1790728 30.8363443,15.170441 C30.8319212,15.1618091 30.8230749,15.1574932 30.8186518,15.1531772 C30.8098055,15.1445453 30.8053824,15.1402294 30.7965361,15.1315975 C30.7876899,15.1272816 30.7832668,15.1186497 30.7744205,15.1143338 C30.7655742,15.1100179 30.756728,15.101386 30.7478817,15.09707 C30.7390355,15.0927541 30.7346124,15.0884382 30.7257661,15.0841222 C30.7169198,15.0798063 30.7080736,15.0754904 30.6992273,15.0668585 C30.6903811,15.0625425 30.6815348,15.0582266 30.6726886,15.0539107 C30.6638423,15.0495947 30.6549961,15.0452788 30.6461498,15.0409629 C30.6373036,15.0366469 30.6284573,15.032331 30.619611,15.0280151 C30.6107648,15.0236991 30.6019185,15.0236991 30.5930723,15.0193832 C30.584226,15.0150672 30.5709566,15.0107513 30.5621104,15.0107513 C30.5532641,15.0107513 30.5444179,15.0064354 30.5399947,15.0064354 C30.5267254,15.0021194 30.5178791,15.0021194 30.5046097,15.0021194 C30.5001866,15.0021194 30.4957635,14.9978035 30.4869172,14.9978035 L15.4571302,12.9736291 L15.4571302,10.927875 C15.4571302,10.9062954 15.4571302,10.8847157 15.4527071,10.8674519 C15.4527071,10.863136 15.4527071,10.8588201 15.448284,10.8501882 C15.448284,10.8372404 15.4438608,10.8242926 15.4438608,10.8113447 C15.4394377,10.7983969 15.4394377,10.7897651 15.4350146,10.7768173 C15.4350146,10.7681854 15.4305915,10.7638694 15.4305915,10.7552376 C15.4261683,10.7422898 15.4217452,10.7293419 15.4173221,10.7163941 C15.4173221,10.7120782 15.4128989,10.7034463 15.4128989,10.6991304 C15.4084758,10.6861826 15.4040527,10.6775507 15.3952064,10.6646029 C15.3907833,10.660287 15.3907833,10.6516551 15.3863602,10.6473391 C15.3819371,10.6387073 15.3775139,10.6300754 15.3686677,10.6214435 C15.3642445,10.6128117 15.3598214,10.6084957 15.3553983,10.5998638 C15.3509752,10.591232 15.346552,10.586916 15.3421289,10.5782842 C15.3377058,10.5696523 15.3288595,10.5610204 15.3244364,10.5523885 C15.3200133,10.5480726 15.3155901,10.5437567 15.311167,10.5394407 C15.3023208,10.5308089 15.2934745,10.522177 15.2846282,10.5135451 C15.2802051,10.5092292 15.275782,10.5049132 15.2713589,10.5005973 C15.2625126,10.4919654 15.2536664,10.4833335 15.240397,10.4747017 C15.2359738,10.4703857 15.2271276,10.4660698 15.2227045,10.4617539 C15.2138582,10.453122 15.205012,10.4488061 15.1961657,10.4401742 C15.1828963,10.4315423 15.1696269,10.4229104 15.1607807,10.4185945 C15.1563576,10.4142786 15.1519344,10.4142786 15.1475113,10.4099626 C15.1298188,10.4013307 15.1077032,10.3926989 15.0900106,10.384067 L11.8301657,9.04612658 C11.5249699,8.92096441 11.1755429,9.05907439 11.0472722,9.35687403 C10.9190015,9.65467367 11.0605416,9.99563268 11.3657373,10.1207949 L14.2584627,11.3119934 L14.2584627,13.9533468 L14.2584627,14.3719927 L14.2584627,17.5830497 L14.2584627,20.4531477 L14.2584627,24.0785346 C14.2584627,25.286997 15.1873194,26.2882943 16.385987,26.4393521 C16.1692537,26.7932589 16.040983,27.2075889 16.040983,27.6478144 C16.040983,28.9469114 17.1246493,30 18.4515875,30 C19.7785257,30 20.8621919,28.9425955 20.8621919,27.6478144 C20.8621919,27.2162207 20.7427675,26.8062067 20.5304574,26.4609318 L25.9001341,26.4609318 C25.687824,26.8105227 25.5683995,27.2162207 25.5683995,27.6478144 C25.5683995,28.9469114 26.6520657,30 27.979004,30 C29.3059422,30 30.3896084,28.9425955 30.3896084,27.6478144 C30.3896084,26.3530334 29.3059422,25.2956288 27.979004,25.2956288 L16.700029,25.2956288 C16.0100211,25.2956288 15.4527071,24.7475048 15.4527071,24.0785346 L15.4527071,22.4989017 C15.8154035,22.7060667 16.2444469,22.8269129 16.700029,22.8269129 Z M19.6723707,27.6434985 C19.6723707,28.2995209 19.1239029,28.8303811 18.4560106,28.8303811 C17.7881184,28.8303811 17.2396506,28.2952049 17.2396506,27.6434985 C17.2396506,26.991792 17.7881184,26.4566158 18.4560106,26.4566158 C19.1239029,26.4566158 19.6723707,26.9874761 19.6723707,27.6434985 Z M29.1997871,27.6434985 C29.1997871,28.2995209 28.6513193,28.8303811 27.9834271,28.8303811 C27.3155349,28.8303811 26.7670671,28.2952049 26.7670671,27.6434985 C26.7670671,26.991792 27.3155349,26.4566158 27.9834271,26.4566158 C28.6513193,26.4566158 29.1997871,26.9874761 29.1997871,27.6434985 Z M28.5584337,21.66161 L16.700029,21.66161 C16.0100211,21.66161 15.4527071,21.113486 15.4527071,20.4445158 L15.4527071,17.5744178 L15.4527071,14.3633608 L15.4527071,14.1475639 L29.8057556,16.0767877 L29.8057556,20.4401999 C29.8057556,21.117802 29.2440184,21.66161 28.5584337,21.66161 Z"></path>
            </g>
        </g>
    </g>
</svg>