<?xml version="1.0" encoding="UTF-8"?>
<svg width="19px" height="19px" viewBox="0 0 19 19" version="1.1" xmlns="http://www.w3.org/2000/svg" xmlns:xlink="http://www.w3.org/1999/xlink">
    <!-- Generator: Sketch 53.2 (72643) - https://sketchapp.com -->
    <title>i-instagram</title>
    <desc>Created with Sketch.</desc>
    <g id="Symbols" stroke="none" stroke-width="1" fill="none" fill-rule="evenodd">
        <g id="ICON/INSTAGRAM/MOBILE" transform="translate(-8.000000, -8.000000)" fill="#FFFFFF">
            <g id="ICON/INSTAGRAM" transform="translate(1.000000, 1.000000)">
                <g id="i-instagram" transform="translate(7.840000, 7.184211)">
                    <path d="M8.8,2.35447368 C11.1118421,2.35447368 11.3789474,2.35447368 12.3,2.40421053 C12.8491233,2.41150153 13.3929781,2.51242303 13.9081579,2.70263158 C14.6632941,2.99380771 15.2601397,3.59065322 15.5513158,4.34578947 C15.7424698,4.86134731 15.8434185,5.40597148 15.8497368,5.95578947 C15.8921053,6.87684211 15.9013158,7.14210526 15.9013158,9.45578947 C15.9013158,11.7694737 15.8921053,12.0347368 15.8497368,12.9557895 C15.8434274,13.5050092 15.7424751,14.0490297 15.5513158,14.5639474 C15.2599422,15.3189552 14.6631657,15.9157317 13.9081579,16.2071053 C13.3932599,16.3983358 12.8492269,16.4992904 12.3,16.5055263 C11.3789474,16.5478947 11.1118421,16.5552632 8.8,16.5552632 C6.48815789,16.5552632 6.22105263,16.5552632 5.3,16.5055263 C4.75071896,16.4998457 4.20659141,16.3988736 3.69184211,16.2071053 C2.93677578,15.9151796 2.33961357,15.3186861 2.04684211,14.5639474 C1.8565289,14.0487963 1.75560403,13.5049234 1.74842105,12.9557895 C1.70789474,12.0347368 1.69868421,11.7676316 1.69868421,9.45578947 C1.69868421,7.14394737 1.69868421,6.87684211 1.74842105,5.95578947 C1.75543062,5.40603923 1.85635763,4.86153179 2.04684211,4.34578947 C2.33941747,3.59092281 2.9366481,2.99436097 3.69184211,2.70263158 C4.2068771,2.51189729 4.75082328,2.41095883 5.3,2.40421053 C6.22105263,2.36184211 6.48631579,2.35447368 8.8,2.35447368 M8.8,0.792368421 C6.44763158,0.792368421 6.15289474,0.803421053 5.22815789,0.845789474 C4.50990437,0.860100931 3.79925382,0.995878162 3.12631579,1.24736842 C1.96274512,1.69789735 1.04310394,2.61820737 0.593421053,3.78210526 C0.340265393,4.45464211 0.203830305,5.16547515 0.19,5.88394737 C0.147631579,6.805 0.138421053,7.10342105 0.138421053,9.45578947 C0.138421053,11.8081579 0.147631579,12.1028947 0.19,13.0257895 C0.203873084,13.7448558 0.340303417,14.456287 0.593421053,15.1294737 C1.04255098,16.2933137 1.96247573,17.2132385 3.12631579,17.6623684 C3.79901184,17.9147212 4.50981134,18.0505268 5.22815789,18.0639474 C6.14921053,18.1063158 6.44763158,18.1173684 8.8,18.1173684 C11.1523684,18.1173684 11.4471053,18.1063158 12.37,18.0639474 C13.0889707,18.0507718 13.8004167,17.9149616 14.4736842,17.6623684 C15.6375243,17.2132385 16.557449,16.2933137 17.0065789,15.1294737 C17.2590395,14.4561021 17.395448,13.7447845 17.41,13.0257895 C17.4505263,12.1047368 17.4615789,11.8081579 17.4615789,9.45578947 C17.4615789,7.10342105 17.4505263,6.80868421 17.41,5.88394737 C17.3955248,5.1655429 17.2591104,4.45481795 17.0065789,3.78210526 C16.5568961,2.61820737 15.6372549,1.69789735 14.4736842,1.24736842 C13.8001742,0.995639742 13.0888777,0.859858093 12.37,0.845789474 C11.4489474,0.803421053 11.1523684,0.792368421 8.8,0.792368421" id="Path_50" fill-rule="nonzero"></path>
                    <path d="M8.8,5.00710526 C6.34431676,5.00710547 4.35349727,6.99765037 4.35315832,9.45333359 C4.35281937,11.9090168 6.34308929,13.9001112 8.79877244,13.9007893 C11.2544556,13.9014674 13.2458248,11.9114725 13.2468421,9.45578947 C13.2473308,8.27609449 12.7790413,7.1445495 11.9450437,6.31020638 C11.111046,5.47586326 9.97969509,5.00710516 8.8,5.00710526 M8.8,12.3423684 C7.6314078,12.3431135 6.57750299,11.6396455 6.12995788,10.5601495 C5.68241278,9.48065343 5.92941673,8.23784548 6.75573637,7.41152584 C7.582056,6.58520621 8.82486396,6.33820226 9.90435998,6.78574736 C10.983856,7.23329246 11.687324,8.28719728 11.6865789,9.45578947 C11.6855628,11.0495819 10.3937924,12.3413523 8.8,12.3423684" id="Path_51" fill-rule="nonzero"></path>
                    <path d="M14.4626316,4.83210526 C14.4626309,5.2532328 14.2088509,5.63285843 13.8197084,5.79384433 C13.4305658,5.95483024 12.9827595,5.86544656 12.6852412,5.56740078 C12.387723,5.269355 12.2991327,4.82139109 12.4608077,4.43253431 C12.6224827,4.04367753 13.0025573,3.79057043 13.4236842,3.79131579 C13.9977768,3.79233188 14.4626325,4.25801173 14.4626316,4.83210526" id="Path_52"></path>
                </g>
            </g>
        </g>
    </g>
</svg>