<?xml version="1.0" encoding="UTF-8"?>
<svg width="16px" height="17px" viewBox="0 0 16 17" version="1.1" xmlns="http://www.w3.org/2000/svg" xmlns:xlink="http://www.w3.org/1999/xlink">
    <!-- Generator: Sketch 53.2 (72643) - https://sketchapp.com -->
    <title>linkedin</title>
    <desc>Created with Sketch.</desc>
    <g id="Symbols" stroke="none" stroke-width="1" fill="none" fill-rule="evenodd">
        <g id="ICON/LINKEDIN/MOBILE" transform="translate(-10.000000, -8.000000)" fill="#FFFFFF">
            <g id="ICON/LINKEDIN" transform="translate(1.000000, 1.000000)">
                <g id="linkedin" transform="translate(8.923421, 6.184211)">
                    <g id="Group_45">
                        <rect id="Rectangle_59" x="0.552631579" y="6.93368421" width="3.26973684" height="10.5626316"></rect>
                        <path d="M2.17184211,5.55026316 C2.96143137,5.55623376 3.67659868,5.08519221 3.9829075,4.35741356 C4.28921631,3.62963491 4.12612986,2.78895231 3.56991292,2.22849753 C3.01369598,1.66804274 2.17427542,1.49858019 1.44419284,1.79935632 C0.714110266,2.10013246 0.237654152,2.81170395 0.237631579,3.60131579 C0.23567364,4.11625567 0.438356877,4.61088233 0.801092515,4.97638167 C1.16382815,5.34188101 1.6569022,5.54831264 2.17184211,5.55026316 Z" id="Path_46"></path>
                    </g>
                    <path d="M9.04842105,11.9515789 C9.04842105,10.4668421 9.73184211,9.58263158 11.0397368,9.58263158 C12.2426316,9.58263158 12.8192105,10.43 12.8192105,11.9515789 L12.8192105,17.4963158 L16.0742105,17.4963158 L16.0742105,10.8076316 C16.2443633,9.05030916 15.1911124,7.4043911 13.5241613,6.82266274 C11.8572101,6.24093437 10.008588,6.87416416 9.04842105,8.35578947 L9.04842105,6.93368421 L5.91684211,6.93368421 L5.91684211,17.4963158 L9.04842105,17.4963158 L9.04842105,11.9515789 Z" id="Path_47"></path>
                </g>
            </g>
        </g>
    </g>
</svg>