<?xml version="1.0" encoding="UTF-8"?>
<svg width="17px" height="15px" viewBox="0 0 17 15" version="1.1" xmlns="http://www.w3.org/2000/svg" xmlns:xlink="http://www.w3.org/1999/xlink">
    <!-- Generator: Sketch 53.2 (72643) - https://sketchapp.com -->
    <title>twitter</title>
    <desc>Created with Sketch.</desc>
    <g id="Symbols" stroke="none" stroke-width="1" fill="none" fill-rule="evenodd">
        <g id="ICON/TWITTER/MOBILE" transform="translate(-9.000000, -10.000000)" fill="#FFFFFF">
            <g id="ICON/TWITTER" transform="translate(1.000000, 1.000000)">
                <path d="M8.22342105,21.9268421 C11.3141192,23.9057735 15.2503475,23.9962092 18.4286692,22.1613098 C21.6069909,20.3264104 23.4969575,16.872413 23.3286842,13.2063158 C24.0046332,12.7172865 24.5878973,12.1115652 25.0510526,11.4176316 C24.4217692,11.7001057 23.7536047,11.8863969 23.0689474,11.9702632 C23.7901182,11.5389853 24.3296655,10.8599676 24.5868421,10.06 C23.9085242,10.4621437 23.1665613,10.7455972 22.3928947,10.8981579 C21.3236781,9.7564015 19.6206124,9.47575113 18.2415779,10.214057 C16.8625433,10.952363 16.1518446,12.5252917 16.5092105,14.0481579 C13.7314752,13.9098159 11.1432796,12.5979724 9.38947368,10.4394737 C8.47794273,12.0168997 8.94600608,14.0309417 10.4597368,15.0447368 C9.91091984,15.0262771 9.37430552,14.877919 8.89394737,14.6118421 C8.87343453,16.2698107 10.0327732,17.7089365 11.6571053,18.0418421 C11.1482855,18.1800053 10.6146362,18.2001667 10.0968421,18.1007895 C10.5506707,19.5064624 11.8473382,20.4686015 13.3242105,20.4955263 C11.8804288,21.6289878 10.0461139,22.1437089 8.22342105,21.9268421 L8.22342105,21.9268421 Z" id="twitter"></path>
            </g>
        </g>
    </g>
</svg>