<?xml version="1.0" encoding="UTF-8"?>
<svg width="65px" height="46px" viewBox="0 0 65 46" version="1.1" xmlns="http://www.w3.org/2000/svg" xmlns:xlink="http://www.w3.org/1999/xlink">
    <!-- Generator: Sketch 53.2 (72643) - https://sketchapp.com -->
    <title>logo</title>
    <desc>Created with Sketch.</desc>
    <g id="Symbols" stroke="none" stroke-width="1" fill="none" fill-rule="evenodd">
        <g id="LOGO/SHORTENED">
            <g id="logo">
                <path d="M26.92,0.13 L0,46 L31.8,46 C35.1450824,45.7912916 38.1905307,44.0011622 40,41.18 L64.24,0 L26.92,0.13 Z" id="Path" fill="#FFE400"></path>
                <path d="M21.07,24.7 L17.17,28.58 C16.6950845,28.9432785 16.4165226,29.5070736 16.4165226,30.105 C16.4165226,30.7029264 16.6950845,31.2667215 17.17,31.63 L21.03,35.5 L26.44,30.11 L21.07,24.7 Z M32,24.7 C33.1105216,23.7067666 33.6791704,22.2424031 33.53,20.76 L33.53,12.39 L28.83,17 C27.7670549,18.0081783 27.191111,19.4261668 27.25,20.89 L27.25,29.35 C27.25,29.35 30.11,26.55 32,24.7 Z M21.84,36.29 L25.75,40.21 C26.0997049,40.6719365 26.645622,40.9433644 27.225,40.9433644 C27.804378,40.9433644 28.3502951,40.6719365 28.7,40.21 L32.65,36.28 L27.25,30.87 L21.84,36.29 Z M37.25,28.6 L33.42,24.75 L28,30.14 L33.39,35.55 L37.27,31.69 C37.7661269,31.3300249 38.0581139,30.7528103 38.0541466,30.1398599 C38.0501793,29.5269095 37.750745,28.9535229 37.25,28.6 Z" id="Shape" fill="#000100" fill-rule="nonzero"></path>
            </g>
        </g>
    </g>
</svg>