<?xml version="1.0" encoding="UTF-8"?>
<svg width="212px" height="46px" viewBox="0 0 212 46" version="1.1" xmlns="http://www.w3.org/2000/svg" xmlns:xlink="http://www.w3.org/1999/xlink">
    <!-- Generator: Sketch 53.2 (72643) - https://sketchapp.com -->
    <title>logo-header</title>
    <desc>Created with Sketch.</desc>
    <g id="Symbols" stroke="none" stroke-width="1" fill="none" fill-rule="evenodd">
        <g id="LOGO/FULL">
            <g id="logo-header">
                <path d="M182.34,11.25 L171.34,11.25 L166.34,19.69 C165.640313,21.2415851 164.035387,22.1804663 162.34,22.03 L159,22.03 L165.4,11.25 L158.92,11.25 C156.324853,11.4193199 153.964367,12.8111158 152.56,15 L149.25,20.61 C148.06,22.61 148.99,24.32 151.33,24.32 L163.54,24.32 C163.23,24.87 162.62,25.87 162.36,26.32 C161.98937,26.9131085 161.463795,27.3937329 160.84,27.71 C160.284812,27.9472053 159.699113,28.1054115 159.1,28.18 L152.47,28.84 C151.79,28.93 151.38,29.24 151.29,29.73 C151.247037,29.9703034 151.320566,30.2167443 151.488181,30.3942183 C151.655795,30.5716923 151.897636,30.6591729 152.14,30.63 L166.31,30.63 C170.84,30.63 172.62,27.81 174,25.46 C177.77,19 182.34,11.25 182.34,11.25 Z" id="Path" fill="#000000"></path>
                <path d="M90.84,11.25 L67.35,11.25 C64.7413781,11.3660773 62.3612318,12.7716755 61,15 L57.78,20.61 C56.59,22.61 57.53,24.32 59.87,24.32 L69,24.32 C69.5535721,24.3305339 70.0436745,23.9639867 70.19,23.43 C70.28,22.93 69.91,22.71 69.34,22.53 C68.77,22.35 67.67,21.79 68.78,19.94 C68.85,19.81 71.02,16.15 71.02,16.15 C71.8789185,14.4147711 73.7104442,13.3800779 75.64,13.54 L80.64,13.54 C79.1208946,13.6524766 77.767389,14.540951 77.06,15.89 L77.06,15.89 L70.86,26.31 C70.4858548,26.903815 69.9568858,27.3843815 69.33,27.7 C68.7781527,27.9368055 68.1958099,28.0950142 67.6,28.17 L61,28.81 C60.22,28.92 59.9,29.21 59.81,29.7 C59.7707339,29.9414106 59.8469776,30.1872611 60.0159498,30.3640924 C60.184922,30.5409238 60.4270547,30.628258 60.67,30.6 L74.8,30.6 C78.98,30.6 81.11,27.78 82.49,25.43 L90.84,11.25 Z" id="Path" fill="#000000"></path>
                <path d="M147.66,11.25 L128.3,11.25 C125.694033,11.4100159 123.320512,12.8029274 121.91,15 C121.91,15 116.24,24.5 115.35,26.09 C114.1,28.33 115.66,30.63 118.72,30.63 L135.32,30.63 C135.875263,30.6357792 136.364379,30.2658595 136.51,29.73 C136.6,29.24 136.21,28.9 135.65,28.84 C133.43,28.6 127.45,28.07 127.45,28.07 C127.13,28.07 125.6,27.5 126.71,25.64 L132.31,16.15 C132.39,16.02 132.47,15.92 132.55,15.8 C132.63,15.68 132.55,15.8 132.55,15.73 C133.55,14.08 131.12,13.54 131.12,13.54 L137.23,13.54 C138.23,13.54 139.63,13.87 138.69,15.44 L138.69,15.44 L135.6,20.62 C134.84,21.77 134.42,21.97 132.82,22.27 L131.62,22.52 C131.06,22.63 130.52,22.92 130.43,23.41 C130.391402,23.6494933 130.466429,23.8933117 130.632993,24.0696732 C130.799557,24.2460348 131.038694,24.3348607 131.28,24.31 L140,24.31 C142.597581,24.1558648 144.968299,22.779438 146.39,20.6 L149.74,15 C150.93,12.92 150,11.25 147.66,11.25 Z" id="Path" fill="#000000"></path>
                <path d="M107.18,17.36 L117.68,17.36 L119,15 C120.18,12.95 119.25,11.28 116.91,11.28 L93.78,11.28 L82.33,30.61 L93.45,30.61 L102,16.13 C102.16,15.88 102.31,15.65 102.47,15.44 C103.08,14 100.92,13.51 100.92,13.51 L106.83,13.51 C107.83,13.51 109.12,13.82 108.39,15.25 L107.18,17.36 Z" id="Path" fill="#000000"></path>
                <path d="M209,11.25 L185.3,11.25 L173.84,30.6 L180.32,30.6 C184.85,30.6 186.63,27.78 188.01,25.43 C188.12,25.23 193.69,16.12 193.69,16.12 C193.69,16.12 193.86,15.88 193.94,15.76 C193.938178,15.7400415 193.938178,15.7199585 193.94,15.7 C194.94,14.05 192.51,13.51 192.51,13.51 L198.56,13.51 C199.56,13.51 200.96,13.84 200.02,15.41 L199.95,15.56 L196.95,20.56 C196.19,21.71 195.77,21.91 194.18,22.21 L193,22.5 C192.45,22.61 191.9,22.9 191.81,23.39 C191.770734,23.6314106 191.846978,23.8772611 192.01595,24.0540924 C192.184922,24.2309238 192.427055,24.318258 192.67,24.29 L201.33,24.29 C203.717442,24.1421281 205.923912,22.9677754 207.38,21.07 C207.506655,20.9163241 207.620376,20.7524316 207.72,20.58 L208.72,18.83 L211.07,15 C212.26,12.92 211.33,11.25 209,11.25 Z" id="Path" fill="#000000"></path>
                <path d="M26.92,0.13 L0,46 L31.8,46 C35.1450824,45.7912916 38.1905307,44.0011622 40,41.18 L64.24,0 L26.92,0.13 Z" id="Path" fill="#FFE400"></path>
                <path d="M21.07,24.7 L17.17,28.58 C16.6950845,28.9432785 16.4165226,29.5070736 16.4165226,30.105 C16.4165226,30.7029264 16.6950845,31.2667215 17.17,31.63 L21.03,35.5 L26.44,30.11 L21.07,24.7 Z M32,24.7 C33.1105216,23.7067666 33.6791704,22.2424031 33.53,20.76 L33.53,12.39 L28.83,17 C27.7670549,18.0081783 27.191111,19.4261668 27.25,20.89 L27.25,29.35 C27.25,29.35 30.11,26.55 32,24.7 Z M21.84,36.29 L25.75,40.21 C26.0997049,40.6719365 26.645622,40.9433644 27.225,40.9433644 C27.804378,40.9433644 28.3502951,40.6719365 28.7,40.21 L32.65,36.28 L27.25,30.87 L21.84,36.29 Z M37.25,28.6 L33.42,24.75 L28,30.14 L33.39,35.55 L37.27,31.69 C37.7661269,31.3300249 38.0581139,30.7528103 38.0541466,30.1398599 C38.0501793,29.5269095 37.750745,28.9535229 37.25,28.6 Z" id="Shape" fill="#000100" fill-rule="nonzero"></path>
            </g>
        </g>
    </g>
</svg>