<?xml version="1.0" encoding="utf-8"?><svg xmlns="http://www.w3.org/2000/svg" xmlns:xlink="http://www.w3.org/1999/xlink"><symbol viewBox="0 0 65 46" id="logo" xmlns="http://www.w3.org/2000/svg"><g fill="none" fill-rule="evenodd"><path d="M26.92.13L0 46h31.8a10.52 10.52 0 0 0 8.2-4.82L64.24 0 26.92.13z" fill="#FFE400"/><path d="M21.07 24.7l-3.9 3.88a1.92 1.92 0 0 0 0 3.05l3.86 3.87 5.41-5.39-5.37-5.41zm10.93 0a4.66 4.66 0 0 0 1.53-3.94v-8.37L28.83 17a5.08 5.08 0 0 0-1.58 3.89v8.46L32 24.7zM21.84 36.29l3.91 3.92a1.85 1.85 0 0 0 2.95 0l3.95-3.93-5.4-5.41-5.41 5.42zm15.41-7.69l-3.83-3.85L28 30.14l5.39 5.41 3.88-3.86a1.9 1.9 0 0 0-.02-3.09z" fill="#000100" fill-rule="nonzero"/></g></symbol></svg>