<?xml version="1.0" encoding="utf-8"?><svg xmlns="http://www.w3.org/2000/svg" xmlns:xlink="http://www.w3.org/1999/xlink"><symbol viewBox="0 0 65 46" id="logo" xmlns="http://www.w3.org/2000/svg"><g fill="none" fill-rule="evenodd"><path d="M26.92.13L0 46h31.8a10.52 10.52 0 0 0 8.2-4.82L64.24 0 26.92.13z" fill="#FFE400"/><path d="M21.07 24.7l-3.9 3.88a1.92 1.92 0 0 0 0 3.05l3.86 3.87 5.41-5.39-5.37-5.41zm10.93 0a4.66 4.66 0 0 0 1.53-3.94v-8.37L28.83 17a5.08 5.08 0 0 0-1.58 3.89v8.46L32 24.7zM21.84 36.29l3.91 3.92a1.85 1.85 0 0 0 2.95 0l3.95-3.93-5.4-5.41-5.41 5.42zm15.41-7.69l-3.83-3.85L28 30.14l5.39 5.41 3.88-3.86a1.9 1.9 0 0 0-.02-3.09z" fill="#000100" fill-rule="nonzero"/></g></symbol><symbol viewBox="0 0 212 46" id="logo-header" xmlns="http://www.w3.org/2000/svg"><g fill="none" fill-rule="evenodd"><path d="M182.34 11.25h-11l-5 8.44a4 4 0 0 1-4 2.34H159l6.4-10.78h-6.48a8.19 8.19 0 0 0-6.36 3.75l-3.31 5.61c-1.19 2-.26 3.71 2.08 3.71h12.21c-.31.55-.92 1.55-1.18 2a3.84 3.84 0 0 1-1.52 1.39 6.46 6.46 0 0 1-1.74.47l-6.63.66c-.68.09-1.09.4-1.18.89a.77.77 0 0 0 .85.9h14.17c4.53 0 6.31-2.82 7.69-5.17 3.77-6.46 8.34-14.21 8.34-14.21zm-91.5 0H67.35A7.85 7.85 0 0 0 61 15l-3.22 5.61c-1.19 2-.25 3.71 2.09 3.71H69a1.21 1.21 0 0 0 1.19-.89c.09-.5-.28-.72-.85-.9-.57-.18-1.67-.74-.56-2.59.07-.13 2.24-3.79 2.24-3.79a4.72 4.72 0 0 1 4.62-2.61h5a4.41 4.41 0 0 0-3.58 2.35l-6.2 10.42a3.86 3.86 0 0 1-1.53 1.39 6.42 6.42 0 0 1-1.73.47l-6.6.64c-.78.11-1.1.4-1.19.89a.78.78 0 0 0 .86.9H74.8c4.18 0 6.31-2.82 7.69-5.17l8.35-14.18zm56.82 0H128.3a8.19 8.19 0 0 0-6.39 3.75s-5.67 9.5-6.56 11.09c-1.25 2.24.31 4.54 3.37 4.54h16.6a1.22 1.22 0 0 0 1.19-.9c.09-.49-.3-.83-.86-.89-2.22-.24-8.2-.77-8.2-.77-.32 0-1.85-.57-.74-2.43l5.6-9.49c.08-.13.16-.23.24-.35.08-.12 0 0 0-.07 1-1.65-1.43-2.19-1.43-2.19h6.11c1 0 2.4.33 1.46 1.9l-3.09 5.18c-.76 1.15-1.18 1.35-2.78 1.65l-1.2.25c-.56.11-1.1.4-1.19.89a.78.78 0 0 0 .85.9H140a8.21 8.21 0 0 0 6.39-3.71l3.35-5.6c1.19-2.08.26-3.75-2.08-3.75zm-40.48 6.11h10.5L119 15c1.18-2.05.25-3.72-2.09-3.72H93.78L82.33 30.61h11.12L102 16.13c.16-.25.31-.48.47-.69.61-1.44-1.55-1.93-1.55-1.93h5.91c1 0 2.29.31 1.56 1.74l-1.21 2.11zM209 11.25h-23.7L173.84 30.6h6.48c4.53 0 6.31-2.82 7.69-5.17.11-.2 5.68-9.31 5.68-9.31s.17-.24.25-.36a.33.33 0 0 1 0-.06c1-1.65-1.43-2.19-1.43-2.19h6.05c1 0 2.4.33 1.46 1.9l-.07.15-3 5c-.76 1.15-1.18 1.35-2.77 1.65l-1.18.29c-.55.11-1.1.4-1.19.89a.78.78 0 0 0 .86.9h8.66a8.27 8.27 0 0 0 6.05-3.22 3.61 3.61 0 0 0 .34-.49l1-1.75 2.35-3.83c1.19-2.08.26-3.75-2.07-3.75z" fill="#000"/><path d="M26.92.13L0 46h31.8a10.52 10.52 0 0 0 8.2-4.82L64.24 0 26.92.13z" fill="#FFE400"/><path d="M21.07 24.7l-3.9 3.88a1.92 1.92 0 0 0 0 3.05l3.86 3.87 5.41-5.39-5.37-5.41zm10.93 0a4.66 4.66 0 0 0 1.53-3.94v-8.37L28.83 17a5.08 5.08 0 0 0-1.58 3.89v8.46L32 24.7zM21.84 36.29l3.91 3.92a1.85 1.85 0 0 0 2.95 0l3.95-3.93-5.4-5.41-5.41 5.42zm15.41-7.69l-3.83-3.85L28 30.14l5.39 5.41 3.88-3.86a1.9 1.9 0 0 0-.02-3.09z" fill="#000100" fill-rule="nonzero"/></g></symbol></svg>